<svg xmlns="http://www.w3.org/2000/svg" width="1200" height="630" viewBox="0 0 1200 630" role="img" aria-labelledby="title desc">
  <title id="title">ISeeSocial</title>
  <desc id="desc">Instagram export local unfollower checker preview image</desc>
  <rect width="1200" height="630" fill="#f7f7f5"/>
  <rect x="96" y="80" width="1008" height="470" rx="32" fill="#ffffff" stroke="#e5e7eb" stroke-width="2"/>
  <rect x="140" y="124" width="74" height="74" rx="18" fill="#111827"/>
  <text x="177" y="171" text-anchor="middle" fill="#ffffff" font-family="Inter, Arial, sans-serif" font-size="28" font-weight="800">IS</text>
  <text x="240" y="154" fill="#111827" font-family="Inter, Arial, sans-serif" font-size="34" font-weight="800">ISeeSocial</text>
  <text x="240" y="190" fill="#4b5563" font-family="Inter, Arial, sans-serif" font-size="22" font-weight="500">인스타 언팔로워 후보를 브라우저에서만 확인하세요</text>
  <rect x="140" y="252" width="410" height="210" rx="20" fill="#f8fafc" stroke="#e5e7eb"/>
  <text x="172" y="304" fill="#111827" font-family="Inter, Arial, sans-serif" font-size="24" font-weight="800">내보내기 ZIP 분석</text>
  <text x="172" y="344" fill="#4b5563" font-family="Inter, Arial, sans-serif" font-size="18">로그인 없이, 서버 업로드 없이</text>
  <rect x="172" y="382" width="190" height="52" rx="26" fill="#2563eb"/>
  <text x="267" y="416" text-anchor="middle" fill="#ffffff" font-family="Inter, Arial, sans-serif" font-size="18" font-weight="800">ZIP 선택하기</text>
  <rect x="610" y="252" width="350" height="58" rx="16" fill="#fdf2f8" stroke="#fbcfe8"/>
  <text x="640" y="289" fill="#e1306c" font-family="Inter, Arial, sans-serif" font-size="20" font-weight="800">언팔로워 후보</text>
  <text x="888" y="289" text-anchor="end" fill="#111827" font-family="Inter, Arial, sans-serif" font-size="22" font-weight="800">24</text>
  <rect x="610" y="328" width="350" height="58" rx="16" fill="#eff6ff" stroke="#bfdbfe"/>
  <text x="640" y="365" fill="#2563eb" font-family="Inter, Arial, sans-serif" font-size="20" font-weight="800">맞팔</text>
  <text x="888" y="365" text-anchor="end" fill="#111827" font-family="Inter, Arial, sans-serif" font-size="22" font-weight="800">183</text>
  <rect x="610" y="404" width="350" height="58" rx="16" fill="#ecfdf5" stroke="#bbf7d0"/>
  <text x="640" y="441" fill="#16a34a" font-family="Inter, Arial, sans-serif" font-size="20" font-weight="800">브라우저 로컬 분석</text>
</svg>
